<svg width="1049.58" height="678.59" xmlns="http://www.w3.org/2000/svg">

 <title>wallet</title>
 <g>
  <title>background</title>
  <rect fill="none" id="canvas_background" height="402" width="582" y="-1" x="-1"/>
 </g>
 <g>
  <title>Layer 1</title>
  <path id="svg_4" fill="#6c63ff" d="m420.150001,427.229997c6.63,0.85 13.51,1.39 19.86,-0.67c1,-0.31 2.1,-1 2,-2a2.42,2.42 0 0 0 -0.45,-1a61.78,61.78 0 0 1 -6,-11.43a1,1 0 0 0 -0.37,-0.52a0.94,0.94 0 0 0 -0.64,0c-2.93,0.77 -5.46,2.66 -8.37,3.47a11.9,11.9 0 0 1 -4.56,0.34c-1.32,-0.15 -3.12,-1.24 -4.32,-1.1c0.68,4.37 2.34,8.45 2.85,12.91z"/>
  <path id="svg_5" fill="#6c63ff" d="m545.540001,416.159997c4.37,-3 8.9,-6.15 11.48,-10.78a1.87,1.87 0 0 0 0.31,-0.93a1.92,1.92 0 0 0 -0.37,-0.9a37.16,37.16 0 0 0 -9.33,-10.07a27.21,27.21 0 0 0 -5.2,4.8c-1.1,1.16 -4.14,3 -4.17,4.77c0,1 1.16,2.16 1.7,3c0.73,1.08 1.42,2.18 2.08,3.3c0.38,0.55 3.85,6.59 3.5,6.81z"/>
  <path id="svg_6" fill="#514e7f" d="m446.140001,440.619997a4.45,4.45 0 0 1 -0.8,2.9a3.93,3.93 0 0 1 -1.68,1c-9.27,3.32 -20,-0.82 -29.25,2.45c-1.9,0.67 -3.7,1.64 -5.61,2.28a30.52,30.52 0 0 1 -7,1.24c-3.27,0.31 -6.56,0.51 -9.84,0.6a23.66,23.66 0 0 1 -7.42,-0.65a8.91,8.91 0 0 1 -5.69,-4.51a4.33,4.33 0 0 1 -0.28,-3.21a3.46,3.46 0 0 1 0.61,-1a8.77,8.77 0 0 1 2.18,-1.77l3.41,-2.2a22.89,22.89 0 0 1 5.17,-2.74c1.35,-0.44 2.78,-0.63 4.15,-1c4.79,-1.4 8.45,-5.2 11.85,-8.85l4.64,-4.95a4.67,4.67 0 0 1 1.61,-1.29a4.46,4.46 0 0 1 2,-0.19a26.74,26.74 0 0 1 12.65,4.24a16.39,16.39 0 0 0 3.12,1.84c2.72,1.06 6.21,0.26 8.72,-1.08c1.19,-0.64 0.93,-1 1.43,-2.14s1.72,-1.87 2.78,-0.83a2.94,2.94 0 0 1 0.66,1.26c1,3.3 0.62,6.85 0.62,10.31a4.54,4.54 0 0 0 0.2,1.6a9.05,9.05 0 0 0 0.91,1.48a3.37,3.37 0 0 1 0.19,0.38a10.17,10.17 0 0 1 0.67,4.83z"/>
  <path id="svg_7" fill="#464353" d="m446.140001,440.619997a4.45,4.45 0 0 1 -0.8,2.9a3.93,3.93 0 0 1 -1.68,1c-9.27,3.32 -20,-0.82 -29.25,2.45c-1.9,0.67 -3.7,1.64 -5.61,2.28a30.52,30.52 0 0 1 -7,1.24c-3.27,0.31 -6.56,0.51 -9.84,0.6a23.66,23.66 0 0 1 -7.42,-0.65a8.91,8.91 0 0 1 -5.69,-4.51a4.33,4.33 0 0 1 -0.28,-3.21a3.46,3.46 0 0 1 0.61,-1c0.54,1.13 0.93,2.63 1.27,3.17a6.49,6.49 0 0 0 4.34,3.13a10.78,10.78 0 0 0 4,-0.51c8.4,-2.08 17.33,-2.11 25.4,-5.26c2.77,-1.09 5.41,-2.54 8.32,-3.2s6,-0.48 9,-0.73c4.74,-0.38 9.33,-1.81 14,-2.56a10.17,10.17 0 0 1 0.63,4.86z"/>
  <path id="svg_8" fill="#514e7f" d="m566.770001,415.549997c-0.44,3.52 -2.67,6.55 -5.12,9.12s-5.22,4.88 -7.17,7.84c-2.4,3.67 -3.48,8.22 -6.6,11.32a18.1,18.1 0 0 1 -4,2.85a27.91,27.91 0 0 1 -5.15,2.37c-4.66,1.49 -9.68,1.15 -14.55,0.79a13.09,13.09 0 0 1 -4.62,-0.89a13.92,13.92 0 0 1 -1.92,-1.18a9.17,9.17 0 0 1 -3,-3a3,3 0 0 1 -0.29,-2.18a5.12,5.12 0 0 1 1.39,-2.12a33,33 0 0 1 3.52,-3.17a21.07,21.07 0 0 0 4.58,-4a12.92,12.92 0 0 0 1.77,-4a35.48,35.48 0 0 0 1.29,-7.65a24.25,24.25 0 0 1 0.53,-5.12c0.74,-2.64 2.7,-5 2.48,-7.73a1.93,1.93 0 0 1 0.1,-1.17a1.63,1.63 0 0 1 0.92,-0.57a16.3,16.3 0 0 1 4.78,-1.11a5.57,5.57 0 0 1 4.44,1.74c0.68,0.82 1.13,2 2.13,2.32a3.38,3.38 0 0 0 1.52,0.06c2.46,-0.25 5.06,-0.56 7,-2.15a8.73,8.73 0 0 0 2.9,-6.37c0,-0.91 -0.41,-1.86 1,-2c1.06,-0.14 1.9,1 2.44,1.7c1.95,2.61 3.95,5.34 4.68,8.52a2.51,2.51 0 0 1 0.89,-0.17a3.87,3.87 0 0 1 3.19,1.63a6.35,6.35 0 0 1 0.87,4.32z"/>
  <path id="svg_9" fill="#464353" d="m566.770001,415.549997c-0.44,3.52 -2.67,6.55 -5.12,9.12s-5.22,4.88 -7.17,7.84c-2.4,3.67 -3.48,8.22 -6.6,11.32a18.1,18.1 0 0 1 -4,2.85a27.91,27.91 0 0 1 -5.15,2.37c-4.66,1.49 -9.68,1.15 -14.55,0.79a13.09,13.09 0 0 1 -4.62,-0.89a13.92,13.92 0 0 1 -1.92,-1.18a9.17,9.17 0 0 1 -3,-3a7.31,7.31 0 0 1 3,-0.72c2.16,0.12 3.74,2.16 5.81,2.79c2.95,0.89 5.89,-1.19 8.88,-1.9c1.95,-0.46 4,-0.34 5.93,-1a14.66,14.66 0 0 0 4.39,-2.66a22.35,22.35 0 0 0 4.69,-4.52a29.05,29.05 0 0 0 2.75,-5.49a78.5,78.5 0 0 1 5.56,-10.64a7.52,7.52 0 0 1 1.13,-1.48c0.47,-0.43 1,-0.73 1.53,-1.11c2,-1.51 2.83,-4 3.53,-6.44a11.27,11.27 0 0 1 0.79,-2.15a3.87,3.87 0 0 1 3.19,1.63a6.35,6.35 0 0 1 0.95,4.47z"/>
  <path id="svg_10" fill="#a1616a" d="m357.080001,103.769997a21.21,21.21 0 0 1 6,7c1.4,2.74 9.47,24 9,27.09c2.63,-2.65 13,-3.08 15.66,-5.73c1.11,-1.11 7.1,-6.65 8,-7.94s7.58,-4 8.31,-5.36c2.73,-4.89 -19.36,-23.42 -16.53,-28.25a1.26,1.26 0 0 0 0.23,-0.76a1.24,1.24 0 0 0 -0.37,-0.59c-1.81,-1.85 -4.21,-3 -6.39,-4.37s-4.28,-3.28 -4.87,-5.8a21,21 0 0 0 -5.65,3.82q-6.08,5.21 -11.95,10.63c-1.53,1.42 -4.49,3.31 -5.2,5.34c-0.84,2.18 2.3,3.73 3.76,4.92z"/>
  <path id="svg_11" fill="#514e7f" d="m392.840001,95.899997a65.08,65.08 0 0 0 -9.46,7.74c-2.74,2.71 -5.34,5.85 -6,9.64c-0.28,1.49 -0.24,3 -0.47,4.51c-1,6.55 -6.66,11.35 -9.16,17.48a30.31,30.31 0 0 0 -1.59,5.85a69.15,69.15 0 0 0 -1.15,11.48c-0.06,3.73 3.6,6.3 4.94,9.78s1.7,7.06 2.38,10.63c1.28,6.74 3.63,13.24 6,19.7c4.93,13.62 20.91,51.27 25.84,64.9c15.11,-3.79 55.33,-12.5 68.71,-20.49c4.46,-2.66 -30.95,-32.67 -26.18,-34.74a1.78,1.78 0 0 0 1.34,-2.51c-4.77,-20.86 -19.69,-38 -26.46,-58.31c-2.35,-7.05 -6.57,-13.07 -9.77,-19.77c-2.9,-6.07 -4.45,-12.78 -7.92,-18.55a11.7,11.7 0 0 0 -2.53,-3.15a14.92,14.92 0 0 0 -2.79,-1.69c-1.98,-0.96 -3.82,-1.53 -5.73,-2.5z"/>
  <circle id="svg_12" fill="#a1616a" r="23.65" cy="77.75" cx="357.88"/>
  <path id="svg_13" fill="#464353" d="m381.940001,88.859997a7.93,7.93 0 0 1 8.89,-1.28c1.6,0.83 3,2.51 2.64,4.27l11.73,0.18a23.55,23.55 0 0 1 5.56,0.51a8.08,8.08 0 0 1 4.64,2.91c0.14,0.19 0.3,0.42 0.54,0.45a0.86,0.86 0 0 0 0.54,-0.18a10.18,10.18 0 0 1 5.84,-1c6.34,0.41 12.2,3.58 17.17,7.54a5.55,5.55 0 0 1 2,2.49c0.41,1.33 -0.08,3 1,3.95c0,11 3.78,21.28 6.3,32c0.45,1.91 2.28,3.6 3.55,5.1a20.57,20.57 0 0 1 3.79,5.66c2.14,5.56 -0.81,12.1 1.27,17.68c0.88,2.36 2.58,4.3 4,6.35a16.42,16.42 0 0 1 3.42,8.2c0.09,1.34 -0.08,2.69 0,4a24.21,24.21 0 0 0 1,5.31q1.28,4.84 2.68,9.67c1.52,5.2 3.5,10.81 8.16,13.58c-11.25,1.91 -23.11,3.78 -33.83,-0.13a17.54,17.54 0 0 1 -4.22,-2.11c-3.87,-2.76 -5.74,-7.48 -7.41,-11.94c-1.86,-5 -3.75,-10.09 -4.13,-15.41a17.69,17.69 0 0 0 -0.71,-5c-1.09,-2.9 -4,-4.65 -6.64,-6.26a31.88,31.88 0 0 1 -8,-6.22a12.43,12.43 0 0 1 -3.24,-9.34c0.2,-1.65 0.85,-3.24 0.91,-4.9s-0.68,-3.56 -2.27,-4c-8.19,-2.48 -12.1,-12.18 -13.92,-20.54a65.94,65.94 0 0 1 -1.05,-13.1l-0.11,-8.53a11.26,11.26 0 0 1 -3.68,-8.09a9.61,9.61 0 0 0 -0.05,-2.68a7.39,7.39 0 0 0 -1.88,-2.85a25.44,25.44 0 0 1 -4.49,-6.29z"/>
  <path id="svg_14" fill="#464353" d="m356.750001,115.899997c-0.27,2.64 0.33,5.35 -0.26,7.94c-0.23,1 -0.63,2 -0.92,2.93a17.2,17.2 0 0 0 1.09,11.13a62,62 0 0 0 5.69,9.85a16,16 0 0 1 1.82,3.41a17.65,17.65 0 0 1 0.7,3.89a120.83,120.83 0 0 0 2.78,15.72c1.12,4.48 13.84,42.78 16.8,46.33a3.77,3.77 0 0 0 2.28,1.55a4.15,4.15 0 0 0 1.94,-0.4l6,-2.3a3.92,3.92 0 0 0 1.39,-0.76a3.58,3.58 0 0 0 0.86,-2.36c0.43,-4.88 -12.32,-43.45 -13.94,-48.06c-4.9,-13.92 -11.42,-27.34 -14.61,-41.75c-0.89,-4 -1.36,-10.16 -4.29,-13.35c-1.21,-1.32 -0.8,-0.76 -2.25,-0.07a16.42,16.42 0 0 0 -2.12,1.11a6.94,6.94 0 0 0 -2.96,5.19z"/>
  <path id="svg_15" fill="#464353" d="m472.160001,202.559997"/>
  <path id="svg_16" fill="#6c63ff" d="m374.960001,142.309997c1.61,8.51 3.27,17 4.92,25.51l23.48,-6.15c0.19,-2.46 -1.12,-4.74 -2,-7c-2.14,-5.37 -2.19,-11.35 -3.92,-16.87c-1.31,-4.2 -3.59,-8.06 -4.82,-12.29c-0.71,-2.46 -1.07,-5 -1.77,-7.49a54.4,54.4 0 0 0 -2.76,-7.15a44.76,44.76 0 0 0 -5.12,-9.49c-3,1.12 -6.2,2.42 -7.91,5.13a11.08,11.08 0 0 0 -1.46,5c-0.41,5.27 1.5,10.57 0.87,15.81a46.5,46.5 0 0 0 0.49,14.99z"/>
  <path id="svg_17" fill="#464353" d="m403.750001,255.509997c1.32,5 -0.59,10.26 -2.15,15.21a117.88,117.88 0 0 0 -4.78,22.9a19.82,19.82 0 0 1 -1.18,5.79c-0.74,1.67 -2,3.08 -2.86,4.67c-2.36,4.18 -2.3,9.28 -1.79,14.06c0.34,3.15 0.85,6.29 1.48,9.39c0.77,3.79 1.72,7.75 0.61,11.45c1.86,-0.41 3.12,2 3,3.89s-0.73,4 0.18,5.63c2.3,0.84 2.32,4 2.25,6.45a54.25,54.25 0 0 0 1.6,12.6q5.22,25.1 11.08,50.06c8.45,2.62 18.32,5.35 26.38,1.72c1.5,-0.67 3,-1.74 3.34,-3.36a5.86,5.86 0 0 0 -0.32,-2.58l-3.82,-13.9c-0.93,-3.36 -1.86,-6.83 -1.37,-10.28c0.37,-2.57 1.49,-5.34 0.23,-7.61c-0.43,-0.78 -1.11,-1.39 -1.61,-2.13c-2,-2.93 -0.95,-6.85 -0.79,-10.4a8.24,8.24 0 0 0 -0.16,-2.38a11.88,11.88 0 0 0 -1.14,-2.61a39.92,39.92 0 0 1 -4.4,-19.86a4.91,4.91 0 0 0 -0.35,-2.59a8.38,8.38 0 0 1 -0.65,-1.06a2.9,2.9 0 0 1 0.21,-1.91a17.5,17.5 0 0 1 -3.08,-3a4.31,4.31 0 0 0 0.74,-6.74a2.25,2.25 0 0 0 1.07,-3.87c-0.49,-0.34 -1.14,-0.49 -1.49,-1c-0.54,-0.74 -0.1,-1.77 0.34,-2.56l2.33,-4.21c1.74,-3.13 2.13,-7 4,-10c2.68,-4.37 4.43,-9.24 6.16,-14.06l6.73,-18.57l4.53,3.93a14.32,14.32 0 0 1 3.72,4.24a18.3,18.3 0 0 1 1.21,5.08c1.66,10.08 8,18.82 10.35,28.75c0.52,2.21 0.87,4.53 2.14,6.42a14,14 0 0 1 1.22,1.84a9.76,9.76 0 0 1 0.51,3.05a14.23,14.23 0 0 0 6,10.2c2.23,1.53 5,2.58 6.21,5a9.32,9.32 0 0 0 1,2.13c1.08,1.3 3.41,1.45 3.87,3.08c0.26,0.91 -0.22,2 0.29,2.8a2.65,2.65 0 0 0 1.11,0.83l6.51,3.25c7.28,3.64 11,12 16.37,18.09a39,39 0 0 1 4.9,6.48c2.32,4.15 3.39,9.36 7.31,12a11.06,11.06 0 0 1 2.84,2.11c1.23,1.62 0.78,3.89 0.89,5.93s1.67,4.47 3.61,3.85a14.23,14.23 0 0 0 0,7.55a38,38 0 0 0 23.06,-9.34c1.9,-1.66 3.73,-3.78 3.75,-6.3a2.26,2.26 0 0 0 -0.28,-1.25a3.57,3.57 0 0 0 -1.47,-1.11c-6.09,-3.3 -7.92,-10.95 -11,-17.16c-2.69,-5.48 -6.67,-10.2 -10,-15.29c-7.24,-10.95 -12.18,-24.2 -23.13,-31.43c-2.41,-1.59 -5.21,-3 -6.42,-5.63c-0.67,-1.47 -0.75,-3.15 -1.28,-4.67s-1.8,-3 -3.42,-3c0.9,-2.2 0.72,-4.88 0.78,-7.26a9.17,9.17 0 0 0 -0.36,-3.13a15.23,15.23 0 0 0 -1.61,-3.1a29.74,29.74 0 0 1 -4.12,-16c0.08,-2.89 0.59,-5.87 -0.28,-8.63c-0.44,-1.39 -1.21,-2.66 -1.74,-4a25,25 0 0 1 -1.25,-7.52l-0.6,-9.61a47.28,47.28 0 0 0 -1.24,-9.5c-2,-7.46 -4,-38.71 -10.85,-42.23s-18.62,20.53 -26.33,21a34.29,34.29 0 0 0 -10,1.93c-5.13,1.92 -9.43,5.5 -13.62,9l-14.18,11.91c-3,2.47 -5.48,4.83 -8.79,6.57z"/>
  <path id="svg_18" fill="#464353" d="m335.690001,51.489997c3.12,-4.26 8.48,-6.52 13.76,-6.71s10.48,1.47 15.21,3.82a18.79,18.79 0 0 0 4.44,1.82c2.5,0.51 5.28,-0.17 7.54,1c3,1.59 3.58,5.64 3.32,9s-0.89,7.09 0.9,10a23.12,23.12 0 0 1 1.73,2.61c0.77,1.73 0.32,3.73 -0.14,5.56c-1.17,-1 -1.83,-2.51 -2.87,-3.67s-2.85,-1.94 -4.14,-1.07s-1.27,2.45 -1.34,3.87s-0.43,3.12 -1.77,3.58a2.87,2.87 0 0 1 -3,-1.17c-2.29,-2.8 -1.37,-7.27 -3.64,-10.09c-1.29,-1.6 -3.44,-2.38 -4.63,-4.06c-0.94,-1.32 -1.18,-3 -2,-4.42s-2.73,-2.46 -4,-1.48a5.41,5.41 0 0 0 -1.07,1.43a6.15,6.15 0 0 1 -7.3,2.2a12.21,12.21 0 0 0 -3.16,-1.37a3.91,3.91 0 0 0 -3.61,2a7.81,7.81 0 0 0 -1,4.18c0,2 0.36,4.13 -0.78,5.73a5.93,5.93 0 0 1 -1.6,1.52c-1.67,1.07 -4,1.79 -5.54,0.57a4.16,4.16 0 0 1 -1.24,-3.88a31.37,31.37 0 0 1 1.18,-4.1c0.88,-3.1 -0.27,-6.59 0.69,-9.51a30.36,30.36 0 0 1 4.06,-7.36z"/>
  <path id="svg_19" fill="#6c63ff" d="m348.360001,122.039997a3.64,3.64 0 0 0 0.22,2.17a3.45,3.45 0 0 0 1.18,1.13a24.26,24.26 0 0 0 11.14,3.61a3.39,3.39 0 0 1 1.54,0.4c0.94,0.62 1,2 0.65,3.1a8.07,8.07 0 0 0 -0.71,3.3c0.29,2.09 2.77,3 4.86,3.31c2.93,0.37 6.14,0.18 8.46,-1.65a13.07,13.07 0 0 0 3.49,-5.23c5.74,-13.19 7.75,-27.77 13.56,-40.92a8.68,8.68 0 0 0 0.87,-2.74a2.7,2.7 0 0 0 -1.08,-2.52c-1.08,-0.67 -2.76,-0.29 -3.49,-1.34c-0.36,-0.53 -0.32,-1.25 -0.64,-1.81c-0.67,-1.19 -2.43,-1 -3.63,-1.69c-0.94,-0.5 -1.59,-1.53 -2.64,-1.73a3.32,3.32 0 0 0 -2.73,1.18c-3.41,3.18 -5.2,7.69 -7.1,11.95a140.09,140.09 0 0 1 -10.16,18.84c0.45,-0.7 -2.16,-6 -3.18,-6.23c-1.79,-0.36 -4.08,2.78 -5.05,3.95a25.16,25.16 0 0 0 -5.56,12.92z"/>
  <path id="svg_20" opacity="0.1" d="m384.690001,82.089997a4.79,4.79 0 0 0 -3.71,1.86c-1.07,1.39 -1.28,3.23 -1.55,5a43.45,43.45 0 0 1 -5.89,15.82"/>
  <path id="svg_21" opacity="0.1" d="m389.790001,86.079997a5.71,5.71 0 0 0 -4.85,2.91a16.35,16.35 0 0 0 -1.22,4.94a27.11,27.11 0 0 1 -4.85,10.39"/>
  <path id="svg_22" fill="#33323d" d="m627.450001,281.579997l0,-12.42a34.48,34.48 0 0 0 -34.48,-34.47l-490.49,0a34.48,34.48 0 0 0 -34.48,34.47l0,22.9l559.45,-10.48z"/>
  <path id="svg_23" fill="#8dd070" d="m238.930001,220.129997s-1.4,86.86 14,115.44s22,152.91 22,152.91s161.44,16.7 273.94,-20s351.88,-51.71 351.88,-51.71l-40.34,-271.89s-199.29,-12.78 -312.66,41.29s-308.82,33.96 -308.82,33.96z"/>
  <path id="svg_24" opacity="0.1" d="m238.930001,220.129997s-1.4,86.86 14,115.44s22,152.91 22,152.91s161.44,16.7 273.94,-20s351.88,-51.71 351.88,-51.71l-40.34,-271.89s-199.29,-12.78 -312.66,41.29s-308.82,33.96 -308.82,33.96z"/>
  <path id="svg_25" fill="#8dd070" d="m274.660001,251.859997s-5.05,71.67 7.62,94.57s13.26,125.13 13.26,125.13s145.29,6.74 248.64,-28.44s320.53,-58 320.53,-58l-24.68,-222.35s-179.7,-1.85 -284.58,47.67s-280.79,41.42 -280.79,41.42z"/>
  <ellipse id="svg_26" opacity="0.1" transform="rotate(-7.099999904632568 -134.0899963378906,-37.139999389648345) " ry="80.9" rx="37.72" cy="403.170001" cx="494.250004"/>
  <path id="svg_27" opacity="0.2" d="m751.150001,12.429997s-193.61,49 -284.91,135.25s-283.5,127.09 -283.5,127.09s25.32,83.09 48.74,105.57s67.84,138.8 67.84,138.8s158.77,-33.66 254.57,-103.14s319.07,-157.23 319.07,-157.23l-121.81,-246.34z"/>
  <path id="svg_28" fill="#8dd070" d="m179.830001,262.329997s25.31,83.1 48.71,105.58s67.84,138.79 67.84,138.79s158.79,-33.65 254.6,-103.13s319.06,-157.2 319.06,-157.2l-121.81,-246.37s-193.6,49 -284.9,135.25s-283.5,127.08 -283.5,127.08z"/>
  <path id="svg_29" opacity="0.1" d="m179.830001,262.329997s25.31,83.1 48.71,105.58s67.84,138.79 67.84,138.79s158.79,-33.65 254.6,-103.13s319.06,-157.2 319.06,-157.2l-121.81,-246.37s-193.6,49 -284.9,135.25s-283.5,127.08 -283.5,127.08z"/>
  <path id="svg_30" fill="#8dd070" d="m225.540001,281.569997s17.19,69.77 36.28,87.67s51,115 51,115s140.34,-38.18 227.91,-103.38s287.29,-153.47 287.29,-153.47l-91.71,-204.12s-171.59,53.37 -256.22,132.69s-254.55,125.61 -254.55,125.61z"/>
  <ellipse id="svg_31" opacity="0.1" transform="rotate(-24.969999313354492 -191.82000732421866,165.02000427246094) " ry="80.9" rx="37.72" cy="549.030004" cx="393.989993"/>
  <path id="svg_32" opacity="0.1" d="m640.690001,293.769997l0,345a29.83,29.83 0 0 1 -29.84,29.83l-513,0a29.83,29.83 0 0 1 -29.82,-29.83l0,-379.78c14.7,5.46 14.7,5.46 29.82,5l513,0a29.84,29.84 0 0 1 29.84,29.78z"/>
  <path id="svg_33" fill="#504f60" d="m640.690001,298.159997l0,345a29.84,29.84 0 0 1 -29.84,29.83l-513,0a29.83,29.83 0 0 1 -29.82,-29.83l0,-379.79c14.7,5.45 14.7,5.45 29.82,5l513,0a29.84,29.84 0 0 1 29.84,29.79z"/>
  <path id="svg_34" opacity="0.1" d="m639.230001,425.709997l0,110.33l-107,0a55.17,55.17 0 0 1 0,-110.33l107,0z"/>
  <path id="svg_35" fill="#33323d" d="m640.690001,422.769997l0,110.35l-107,0a55.17,55.17 0 0 1 0,-110.33l107,-0.02z"/>
  <circle id="svg_36" opacity="0.1" r="21.51" cy="480.88" cx="538.82"/>
  <circle id="svg_37" fill="#6c63ff" r="21.51" cy="477.96" cx="540.28"/>
  <path id="svg_47" fill="#a1616a" d="m473.200001,203.439997a47.21,47.21 0 0 0 -5.39,5.66a11.33,11.33 0 0 0 -2.48,7.27a3.72,3.72 0 0 0 0.7,2.13a1.8,1.8 0 0 0 2,0.61a2.69,2.69 0 0 0 1,-0.88a48.27,48.27 0 0 1 3.36,-3.64c0.43,-0.43 1,-0.88 1.58,-0.72a1.69,1.69 0 0 1 0.68,0.45a4.6,4.6 0 0 1 1.41,2.2c0.35,1.53 -0.54,3.06 -1.55,4.26s-2.2,2.35 -2.61,3.86a1.71,1.71 0 0 0 0,1.24a1.86,1.86 0 0 0 0.78,0.66a11.16,11.16 0 0 0 9.44,0.62c2,-0.81 3.78,-2.2 5.84,-2.92a13.5,13.5 0 0 0 2.58,-1a5.36,5.36 0 0 0 2.29,-3.43a14.14,14.14 0 0 0 0.15,-4.21a48.41,48.41 0 0 0 -3.44,-15.83a2,2 0 0 0 -0.58,-0.84a1.85,1.85 0 0 0 -1,-0.27c-2.56,-0.27 -6.76,-1.58 -9.23,-0.63a6.52,6.52 0 0 0 -2.18,1.94c-0.46,0.51 -3.35,2.8 -3.35,3.47z"/>
  <path id="svg_48" fill="#464353" d="m472.390001,201.179997c0,-2.44 -3,-8.33 1.77,-8.72c0,-2.61 -3.69,-4.23 -3,-7c0.22,-0.92 1,-1.67 1.09,-2.61c0.3,-2.67 -4.52,-4.12 -3.72,-6.68c0.3,-1 1.36,-1.58 1.59,-2.57c0.54,-2.31 -3.59,-3.34 -3.67,-5.71c0,-0.8 0.45,-1.55 0.41,-2.35c0,-1 -0.87,-1.76 -1.35,-2.63c-1.25,-2.23 -0.64,-5.68 -2.92,-6.83c1.51,0.13 2,-2.11 1.38,-3.48s-1.89,-2.56 -1.9,-4.08a6.16,6.16 0 0 0 0,-1.66c-0.42,-1.46 -2.81,-1.58 -3.21,-3a12.78,12.78 0 0 1 -0.05,-1.64c-0.16,-1.13 -1.32,-1.85 -2.41,-2.17a9.83,9.83 0 0 1 -3.22,-1.15c-0.7,-0.53 -1.51,-1.41 -2.26,-1c-0.28,0.17 -0.42,0.49 -0.63,0.73c-0.9,1.05 -2.62,0.59 -3.75,-0.18c-3.34,-2.27 -5,-6.34 -5.71,-10.31s-0.69,-8.07 -1.58,-12a25.64,25.64 0 0 0 -1.08,-3.6c-0.38,-1 -1.6,-2.57 -1.68,-3.58c-0.18,-2.3 4.58,-0.73 6.39,-0.5a28.46,28.46 0 0 1 5.19,1a55.49,55.49 0 0 1 5.31,2.33c7.22,3.19 15.94,3.58 21.74,8.94c1.91,1.76 3.52,4.07 6,4.87a27.15,27.15 0 0 1 3.36,0.87c2.75,1.29 3.18,4.94 4.68,7.58a14.86,14.86 0 0 1 1.23,2.2a8.48,8.48 0 0 1 0.4,2.8l0.21,6.93c0.34,11.61 0.68,23.25 -0.56,34.79c-0.4,3.81 -1,7.73 0.13,11.39c0.3,1 0.72,1.94 1,2.95a18,18 0 0 1 0.38,3.6l0.16,4.49a1.4,1.4 0 0 1 -0.22,1a1.44,1.44 0 0 1 -1.21,0.29c-6.25,-0.56 -12.57,-4.08 -18.47,-1.95"/>
  <path id="svg_56" opacity="0.05" d="m767.590001,394.469997l25.72,-3.43s-14.57,14.87 -25.72,3.43z"/>
  <path id="svg_57" opacity="0.1" d="m789.590001,365.909997s0.88,9.1 -4.69,12.52c0,0 9.97,-1.56 4.69,-12.52z"/>
  <path id="svg_60" opacity="0.05" d="m739.300001,484.329997s-23.07,4.3 -16.52,7.23s17.31,5.28 17.31,5.28s7.45,0.39 -0.79,-12.51z"/>
 </g>
</svg>