<svg width="812.21689" height="684" xmlns="http://www.w3.org/2000/svg">
 <title>personal notes</title>

 <g>
  <title>background</title>
  <rect fill="none" id="canvas_background" height="402" width="582" y="-1" x="-1"/>
 </g>
 <g>
  <title>Layer 1</title>
  <path id="svg_1" fill="#57b894" d="m660.761654,351.1946a20.81252,20.81252 0 1 1 16.33088,-36.52685l-5.49886,9.20789l8.791,-5.71713a20.73405,20.73405 0 0 1 3.91329,15.37031a20.40847,20.40847 0 0 1 -1.592,5.5312a20.80855,20.80855 0 0 1 -21.94431,12.13458z"/>
  <path id="svg_2" stroke-miterlimit="10" stroke="#3f3d56" fill="none" d="m580.186484,449.03602c5.86434,-7.19773 2.82261,-17.97165 -1.46524,-26.20646s-9.757,-16.99552 -7.87174,-26.08635c2.70952,-13.06514 18.09575,-18.15106 30.53479,-22.97907a125.30021,125.30021 0 0 0 26.13329,-13.89765c3.25992,-2.26529 6.46588,-4.741 8.74038,-7.99445c3.27553,-4.68539 4.32325,-10.52684 5.24887,-16.16823q4.62529,-28.18969 7.91667,-56.57676"/>
  <path id="svg_3" stroke-miterlimit="10" stroke="#3f3d56" fill="none" d="m661.302674,348.35766a20.81252,20.81252 0 1 1 16.33087,-36.52684l-5.49886,9.20789l8.791,-5.71713a20.734,20.734 0 0 1 3.91329,15.37031a20.40864,20.40864 0 0 1 -1.592,5.53119a20.80855,20.80855 0 0 1 -21.9443,12.13458z"/>
  <path id="svg_4" fill="#57b894" d="m670.024524,285.91685a20.78819,20.78819 0 0 0 -7.01064,-18.693l-6.30275,8.18053l2.22782,-10.93287a20.81,20.81 0 1 0 11.08557,21.4453l0,0.00004z"/>
  <path id="svg_5" stroke-miterlimit="10" stroke="#3f3d56" fill="none" d="m670.745874,282.13427a20.7882,20.7882 0 0 0 -7.01064,-18.693l-6.30276,8.18053l2.22783,-10.93287a20.81,20.81 0 1 0 11.08557,21.4453l0,0.00004z"/>
  <path id="svg_6" fill="#57b894" d="m604.511114,375.66488a20.81,20.81 0 0 1 1.16215,-41.33508l-1.71221,8.40143l6.37461,-8.27825a0.36188,0.36188 0 0 1 0.0562,0.00719a20.81112,20.81112 0 1 1 -5.88075,41.20471z"/>
  <path id="svg_7" stroke-miterlimit="10" stroke="#3f3d56" fill="none" d="m605.389444,371.91224a20.81,20.81 0 0 1 1.16215,-41.33508l-1.71221,8.40143l6.37461,-8.27825a0.36188,0.36188 0 0 1 0.0562,0.00719a20.81112,20.81112 0 1 1 -5.88075,41.20471z"/>
  <path id="svg_8" fill="#57b894" d="m607.372284,416.35695a20.80131,20.80131 0 1 1 4.12738,-16.26818l-14.748,7.95391l14.66521,-0.57678a20.61632,20.61632 0 0 1 -4.04459,8.89105z"/>
  <path id="svg_9" stroke-miterlimit="10" stroke="#3f3d56" fill="none" d="m607.913294,413.52002a20.80131,20.80131 0 1 1 4.12738,-16.26819l-14.748,7.95392l14.66521,-0.57678a20.61637,20.61637 0 0 1 -4.04459,8.89105z"/>
  <ellipse id="svg_16" fill="#36334a" ry="98.09962" rx="86.5" cy="460.83333" cx="362.83333"/>
  <path id="svg_17" fill="#fbbebe" d="m473.866314,134.40749a141.13475,141.13475 0 0 1 -66.07806,11.44608c5.81249,-4.14558 9.54165,-10.80223 11.0449,-17.78155s0.93074,-14.27349 -0.62218,-21.24193a3.46816,3.46816 0 0 1 0.047,-2.45144a3.38368,3.38368 0 0 1 2.64078,-1.25769c8.7621,-1.21977 33.85957,-6.51568 40.532,0.98547c3.16167,3.55437 1.951,10.45867 3.10543,14.80021c0.47672,1.79304 6.5755,16.70646 9.33013,15.50085z"/>
  <path id="svg_18" opacity="0.1" d="m473.866314,134.40749a141.13475,141.13475 0 0 1 -66.07806,11.44608c5.81249,-4.14558 9.54165,-10.80223 11.0449,-17.78155s0.93074,-14.27349 -0.62218,-21.24193a3.46816,3.46816 0 0 1 0.047,-2.45144a3.38368,3.38368 0 0 1 2.64078,-1.25769c8.7621,-1.21977 33.85957,-6.51568 40.532,0.98547c3.16167,3.55437 1.951,10.45867 3.10543,14.80021c0.47672,1.79304 6.5755,16.70646 9.33013,15.50085z"/>
  <path id="svg_19" fill="#3f3d56" d="m400.833324,283.33333l-130,4s-115,112 -20,146c0,0 117,19 145,-3c0,0 35,-138 5,-147zm-6,37l-139,9s10,-34 50,-34s85,-9 89,12s0,13 0,13z"/>
  <path id="svg_20" fill="#fbbebe" d="m298.347864,265.39182c-6.48467,-0.99218 -13.53406,-1.56541 -19.21354,1.71772a30.60251,30.60251 0 0 0 -5.23548,4.13078q-3.42548,3.1455 -6.79931,6.34663c-1.64483,1.56063 -3.3649,3.2815 -3.78689,5.50926c-0.86829,4.58389 4.4266,8.27515 9.08856,8.09612s8.84435,-2.7406 13.24714,-4.28376c8.86659,-3.10771 41.47563,2.205 43.2572,-7.34331c2.26523,-12.14069 -23.34637,-13.02619 -30.55768,-14.17344z"/>
  <path id="svg_21" fill="#d7e5f2" d="m359.119154,257.725a73.565,73.565 0 0 1 -27.18844,7.71992a11.46191,11.46191 0 0 0 -4.3014,0.91558a4.34585,4.34585 0 0 0 -1.79271,2.18132a64.89853,64.89853 0 0 0 -6.07778,22.186a1.9798,1.9798 0 0 0 0.702,2.02648a6.24073,6.24073 0 0 0 2.93885,0.65964q23.33686,1.48142 46.8282,1.59093a4.88366,4.88366 0 0 0 2.0386,-0.27713a1.90973,1.90973 0 0 0 0.93711,-1.15981a70.95387,70.95387 0 0 0 5.08694,-28.78c-0.4091,-11.59151 -3.80327,-15.22106 -19.17137,-7.06293z"/>
  <path id="svg_22" opacity="0.1" d="m359.119154,257.725a73.565,73.565 0 0 1 -27.18844,7.71992a11.46191,11.46191 0 0 0 -4.3014,0.91558a4.34585,4.34585 0 0 0 -1.79271,2.18132a64.89853,64.89853 0 0 0 -6.07778,22.186a1.9798,1.9798 0 0 0 0.702,2.02648a6.24073,6.24073 0 0 0 2.93885,0.65964q23.33686,1.48142 46.8282,1.59093a4.88366,4.88366 0 0 0 2.0386,-0.27713a1.90973,1.90973 0 0 0 0.93711,-1.15981a70.95387,70.95387 0 0 0 5.08694,-28.78c-0.4091,-11.59151 -3.80327,-15.22106 -19.17137,-7.06293z"/>
  <path id="svg_23" fill="#36334a" d="m533.833324,362.33333l-171,-6l40,-169s160,-12 156,29s-25,146 -25,146z"/>
  <path id="svg_24" fill="#36334a" d="m368.752384,443.11945s-102.91906,18.21388 -139.91906,-35.78612s140,-25 140,-25l15,41l-15.08094,19.78612z"/>
  <circle id="svg_25" fill="#36334a" r="47" cy="625.33333" cx="337.83333"/>
  <ellipse id="svg_26" fill="#3f3d56" ry="34" rx="29.5" cy="625.33333" cx="342.33333"/>
  <path id="svg_27" fill="#3f3d56" d="m594.833324,182.33333s-39,-22 -41,30l-33,242l14,0l38,-259s19,3 22,3s0,-16 0,-16z"/>
  <path id="svg_28" fill="#36334a" d="m633.693994,209.03495l0,0a9.35284,9.35284 0 0 1 -12.68841,6.0966l-45.24139,-19.34255l8.20694,-18.07721l44.588,20.30835a9.35286,9.35286 0 0 1 5.13486,11.01481z"/>
  <path id="svg_29" fill="#3f3d56" d="m358.833324,437.33333s-72,-8 -92,61s-18,122 -35,118s-53,-18 -53,-18l3,21s63,32 73,-2s16,-159 73,-156s67,-3 67,-3l-36,-21z"/>
  <path id="svg_30" fill="#3f3d56" d="m221.833324,404.33333s-56,7 -78,48s-33,115 -33,115l21,0s12,-147 75,-139l15,-24z"/>
  <path id="svg_31" fill="#36334a" d="m183.833324,633.33333l-89,-55s-5,-20 52,-28c0,0 107.767,37.68956 97.38348,51.84478s-45.38348,36.15522 -60.38348,31.15522z"/>
  <polygon id="svg_32" fill="#3f3d56" points="321.8333296775818,454.3333296775818 321.8333296775818,571.3333296775818 334.8333296775818,571.3333296775818 334.8333296775818,452.3333296775818 321.8333296775818,454.3333296775818 "/>
  <path id="svg_33" fill="#36334a" d="m340.833324,526.33333s25,98 9,112c0,0 -21,-62 -37,-54l5,-58l23,0z"/>
  <circle id="svg_34" fill="#fbbebe" r="39" cy="79.33333" cx="437.83333"/>
  <path id="svg_35" fill="#d7e5f2" d="m430.457274,138.44363c15.90449,2.70239 29.65006,-15.7889 45.57155,-13.18852a30.58277,30.58277 0 0 1 9.79347,3.8534a97.15545,97.15545 0 0 1 46.82774,62.7187c1.79955,8.02078 2.49443,16.71841 -0.893,24.20819c-1.8006,3.98122 -4.64993,7.38129 -7.49869,10.69442c-10.593,12.31982 -22.2188,24.59723 -37.33364,30.55809c-1.47607,5.11383 -0.05878,10.65049 1.71152,15.67005c7.39156,20.95823 -4.36225,43.54542 -4.96171,65.7608c-0.10252,3.79956 0.01135,7.96369 -2.36453,10.93057c-2.63787,3.294 -7.34649,3.87866 -11.55989,4.11606c-38.6154,2.17575 -77.17738,-3.74843 -115.40044,-9.65445a5.79921,5.79921 0 0 1 -2.80335,-0.94893c-1.25681,-1.00344 -1.447,-2.79755 -1.71476,-4.38335c-1.41754,-8.39418 6.03606,-15.20062 2.50176,-22.94533c-6.0757,-13.3137 7.17745,-27.87354 11,-42s5.32848,-16.6114 8,-31c0.99891,-5.38 -1.87855,-21.599 -1,-27c2.86974,-17.64183 0.6996,-37.73657 10,-53c5.58786,-9.17055 4.13758,-16.30146 14.10881,-20.28864c10.52138,-4.20716 24.75982,-2.79088 36.01516,-4.10106z"/>
  <path id="svg_36" fill="#696880" d="m254.328114,371.02546c-11.64267,2.24535 -24.00392,4.38675 -32.96361,12.15317c-5.4721,4.74332 -9.15,11.17295 -12.72268,17.47205l-36.45005,64.26565c-11.11672,19.60006 -22.23924,39.211 -32.31829,59.36428a10.703,10.703 0 0 0 -1.507,4.8277c0.04023,2.40524 1.65664,4.47268 3.3118,6.21831a53.15985,53.15985 0 0 0 45.00449,15.824c2.50731,-12.982 14.84725,-21.56228 20.89553,-33.31969c3.32349,-6.46061 4.65893,-13.725 6.80427,-20.66632c8.00167,-25.88986 26.99627,-46.67929 45.43748,-66.53461c8.71558,-9.38391 17.63725,-18.931 28.8669,-25.08842c13.17425,-7.22373 28.46077,-9.22257 43.18294,-12.22273s29.96622,-7.54928 40.38382,-18.376a43.35979,43.35979 0 0 0 11.54564,-35.31895c-9.43161,-0.6597 -19.9278,-1.88629 -29.02571,1.147c-10.56665,3.523 -20.7864,8.33763 -31.36879,11.93637a521.16609,521.16609 0 0 1 -69.07674,18.31819z"/>
  <path id="svg_37" opacity="0.1" d="m254.328114,371.02546c-11.64267,2.24535 -24.00392,4.38675 -32.96361,12.15317c-5.4721,4.74332 -9.15,11.17295 -12.72268,17.47205l-36.45005,64.26565c-11.11672,19.60006 -22.23924,39.211 -32.31829,59.36428a10.703,10.703 0 0 0 -1.507,4.8277c0.04023,2.40524 1.65664,4.47268 3.3118,6.21831a53.15985,53.15985 0 0 0 45.00449,15.824c2.50731,-12.982 14.84725,-21.56228 20.89553,-33.31969c3.32349,-6.46061 4.65893,-13.725 6.80427,-20.66632c8.00167,-25.88986 26.99627,-46.67929 45.43748,-66.53461c8.71558,-9.38391 17.63725,-18.931 28.8669,-25.08842c13.17425,-7.22373 28.46077,-9.22257 43.18294,-12.22273s29.96622,-7.54928 40.38382,-18.376a43.35979,43.35979 0 0 0 11.54564,-35.31895c-9.43161,-0.6597 -19.9278,-1.88629 -29.02571,1.147c-10.56665,3.523 -20.7864,8.33763 -31.36879,11.93637a521.16609,521.16609 0 0 1 -69.07674,18.31819z"/>
  <path id="svg_38" fill="#3f3d56" d="m97.180214,574.81244a8.18556,8.18556 0 0 0 -2.87107,3.70781c-1.32386,4.50984 4.32052,7.68766 8.83735,8.98746c10.14824,2.92032 20.97505,5.84688 31.09722,2.83743c6.20735,-1.84553 11.609,-5.80046 17.77615,-7.7762c9.15241,-2.9321 19.06531,-1.26718 28.52619,0.42264a61.7409,61.7409 0 0 0 -4.09008,-35.24225c-3.03518,-7.0016 -15.18588,-10.40985 -22.42006,-10.717c-7.90763,-0.33573 -10.65423,5.49871 -15.21886,10.86905c-11.11748,13.07988 -28.8284,16.11178 -41.63684,26.91106z"/>
  <path id="svg_39" fill="#696880" d="m261.757774,390.18158c-5.59477,2.22518 -11.332,4.54189 -15.72086,8.66393c-4.63356,4.35191 -7.34586,10.32263 -9.81879,16.1787a451.88365,451.88365 0 0 0 -18.63135,53.14348c-2.57644,9.13763 -4.87284,18.381 -8.344,27.21762c-6.92778,17.63622 -18.68319,34.52705 -17.57882,53.44293a12.67311,12.67311 0 0 0 1.78947,6.52853c1.56869,2.27737 4.23859,3.48556 6.77515,4.587l13.29684,5.7736c7.13545,3.09827 15.84224,6.07712 22.21713,1.619c4.266,-2.98328 5.97024,-8.39383 7.25712,-13.43787c4.64761,-18.21665 7.51924,-37.13855 15.84663,-53.99386c9.41205,-19.05075 25.32563,-34.44559 33.7465,-53.95473c1.19179,-2.76109 2.32176,-5.72336 4.66515,-7.60816c1.9356,-1.55682 4.4452,-2.16312 6.8672,-2.7146c49.94143,-11.3716 101.009,-17.59175 150.55066,-30.5948c7.04311,-1.84858 14.41157,-4.04328 19.43614,-9.31361c6.967,-7.30776 7.58787,-18.41544 7.81082,-28.50963c0.13969,-6.32448 0.10987,-13.19643 -3.74322,-18.21362c-4.34557,-5.65845 -12.1385,-7.15249 -19.23393,-7.89885c-27.2136,-2.86256 -52.31369,1.64681 -79.11642,4.94985c-24.52293,3.0221 -49.22286,16.86391 -72.10088,25.9074q-22.99484,9.08965 -45.97054,18.22769z"/>
  <path id="svg_40" fill="#3f3d56" d="m200.223664,570.96433c-3.74065,8.8806 -7.77606,18.1568 -15.3618,24.09937c-3.16889,2.48247 -7.26794,4.9678 -7.39443,8.99129c-0.13384,4.25707 4.337,7.067 8.34339,8.51241c10.20382,3.68122 21.816,4.46831 31.7716,0.16062c6.80928,-2.94632 12.42487,-8.03762 17.90465,-13.03954c1.65067,-1.50673 3.35884,-3.09685 4.13255,-5.19359a13.43175,13.43175 0 0 0 0.46446,-5.45342a139.75814,139.75814 0 0 0 -5.9021,-32.73986c-0.253,-0.83643 -21.76994,-3.51862 -23.67767,-3.02042c-6.0074,1.56883 -7.96363,12.18233 -10.28065,17.68314z"/>
  <path id="svg_41" fill="#3f3d56" d="m534.833324,313.33333l-130,4s-115,112 -20,146c0,0 117,19 145,-3c0,0 35,-138 5,-147zm-6,37l-139,9s10,-34 50,-34s85,-9 89,12s0,13 0,13z"/>
  <ellipse id="svg_42" fill="#36334a" ry="148" rx="130.5" cy="524.33333" cx="505.33333"/>
  <ellipse id="svg_43" fill="#3f3d56" ry="110" rx="98.5" cy="524.33333" cx="511.33333"/>
  <path id="svg_44" fill="#36334a" d="m536.833324,522.83333a29.292,29.292 0 0 0 -0.571,-5.71454l73.571,-36.78546l-5,-11l-74.31835,36.20642a15.51914,15.51914 0 0 0 -2.469,-2.063l0.05689,0.012l21.73046,-108.15542l-19.22216,-0.437l-12.77784,106.437l1.2251,0.25714a11.99725,11.99725 0 0 0 -2.86584,0.97931l-64.275,-65.97607l-9.08426,12.73962l66.03772,60.7547a26.56334,26.56334 0 0 0 -2.92395,10.23962l-93.11377,38.00568l-2,16l97.06006,-40.81964a21.21335,21.21335 0 0 0 3.79346,6.131l-29.85352,101.68864l11,0l25.05872,-97.55005a11.41835,11.41835 0 0 0 3.44128,0.55005a11.91793,11.91793 0 0 0 6.35572,-1.905l52.14428,68.905l16,-11l-61.09655,-66.73627a27.96378,27.96378 0 0 0 2.09655,-10.76373z"/>
  <path id="svg_45" fill="#36334a" d="m392.511064,54.64217c1.76182,-4.42383 7.44313,-6.25376 9.30406,-10.63682c2.00143,-4.71393 -1.13571,-10.71173 1.58736,-15.049c2.7436,-4.36994 9.13757,-3.85784 14.22784,-3.01353c6.00915,0.99672 12.39981,1.667 18.005,-0.71751c2.49287,-1.0605 4.70543,-2.67989 7.11986,-3.90855a25.14893,25.14893 0 0 1 12.41039,-2.698a5.63143,5.63143 0 0 1 2.785,0.66441a5.21744,5.21744 0 0 1 1.80611,2.33161c1.75322,3.79772 2.00364,8.53786 5.178,11.26186c1.52473,1.30842 3.50325,1.925 5.32944,2.76275a23.07551,23.07551 0 0 1 12.93655,23.02216a46.811,46.811 0 0 0 -0.78679,6.59384c0.12415,4.86263 3.30266,9.72009 1.679,14.30533c-1.20683,3.40819 -4.73742,5.42549 -8.19692,6.47622a4.70307,4.70307 0 0 1 -3.09347,0.15656c-1.7748,-0.71906 -2.129,-2.99931 -2.696,-4.82838a11.84523,11.84523 0 0 0 -11.47415,-8.086c-4.03418,0.17134 -8.11524,2.4369 -11.92141,1.08894c-1.87031,-0.66237 -3.33365,-2.10806 -4.82867,-3.41255c-3.44038,-3.00193 -7.50959,-5.49943 -12.03059,-6.13843s-9.52949,0.88553 -12.19191,4.59488c-1.07527,1.49808 -1.72644,3.26161 -2.75228,4.79407c-9.2171,13.76879 -26.20144,-10.0097 -22.39642,-19.56386z"/>
  <path id="svg_47" fill="#fbbebe" d="m413.290494,292.31997a10.61062,10.61062 0 0 0 -9.28184,3.45575c-8.7507,7.97237 -18.025,16.95877 -19.61108,28.68983a4.83285,4.83285 0 0 0 0.363,3.17635c0.84279,1.37921 2.695,1.6849 4.31106,1.71171a28.69323,28.69323 0 0 0 21.68786,-9.57794c1.50116,-1.70306 2.87811,-3.65192 4.93567,-4.61125a12.868,12.868 0 0 1 5.89413,-0.73085c5.48963,0.17957 18.025,2.98964 22.81131,0.26653c5.03292,-2.86342 3.64875,-11.83966 1.29919,-16.16752c-5.58518,-10.2879 -22.90212,-6.31551 -32.4093,-6.21261z"/>
  <path id="svg_48" fill="#d7e5f2" d="m535.432144,205.92293c3.3626,10.81681 1.39316,23 6.1574,33.27684c3.16237,6.82145 9.10884,12.31989 10.95043,19.60969c1.74024,6.8886 -0.59079,14.31165 -4.67991,20.122s-9.78229,10.2725 -15.49215,14.50087c-6.25243,4.6302 -12.745,9.14875 -20.11142,11.65233c-7.34783,2.49727 -15.22132,2.87472 -22.97378,3.23014l-51.38277,2.35569l-9.46317,-28.37079l33.48,-13.11394c3.351,-1.31259 6.76478,-2.6399 10.35391,-2.90537c6.19675,-0.45834 13.7547,1.81645 17.73443,-2.9555a12.92352,12.92352 0 0 0 2.33856,-5.94137c3.24639,-16.66747 0.42124,-34.30195 5.41916,-50.53045c2.47371,-8.03226 9.61159,-24.14475 19.34642,-25.56235c10.31689,-1.50234 15.98965,17.12661 18.32289,24.63221z"/>
 </g>
</svg>